# xmcd
#
# Track frame offsets:
#	150
#	12482
#	24626
#	37584
#	53530
#	64206
#	74915
#	87509
#	103466
#	124451
#	139962
#	158561
#
# Disc length: 2266 seconds
# Revision: 0
# Processed by: cddbd v1.5.2PL0 Copyright (c) Steve Scherf et al.
# Submitted via: dBpowerAMP V12.0
#
DISCID=ae08d80c
DTITLE=Turning Ground - Cell of Mine
DYEAR=2014
DGENRE=Country
TTITLE0=Dig 2 Graves
TTITLE1=Cell Of Mine
TTITLE2=Old Memories
TTITLE3=Cowboy In His Bones
TTITLE4=Jess
TTITLE5=Echo Of The Steel
TTITLE6=Ohio River
TTITLE7=Lay Me Down
TTITLE8=Sorrow In The End
TTITLE9=Katie
TTITLE10=When A Man Can't Get A Woman Off His Mind
TTITLE11=I Know Where You Been
EXTD=
EXTT0=
EXTT1=
EXTT2=
EXTT3=
EXTT4=
EXTT5=
EXTT6=
EXTT7=
EXTT8=
EXTT9=
EXTT10=
EXTT11=
PLAYORDER=
